<svg width="103" height="131" viewBox="0 0 103 131" fill="none" xmlns="http://www.w3.org/2000/svg">
    <path fill-rule="evenodd" clip-rule="evenodd" d="M79.8779 39.5212C80.1424 40.006 79.9637 40.6134 79.4789 40.8779L60.0846 51.4566C58.7995 52.1575 58 53.5044 58 54.9682V61.4289C58 62.4898 58.4214 63.5072 59.1716 64.2574L69.7071 74.7929C70.0976 75.1834 70.0976 75.8166 69.7071 76.2071C69.3166 76.5976 68.6834 76.5976 68.2929 76.2071L57.7574 65.6716C56.6321 64.5464 56 63.0202 56 61.4289V54.9682C56 52.7725 57.1993 50.7522 59.1269 49.7008L78.5211 39.1221C79.006 38.8576 79.6134 39.0363 79.8779 39.5212Z" fill="#808080"/>
    <path fill-rule="evenodd" clip-rule="evenodd" d="M3.67828 78.2652L16.6783 90.2652C17.0841 90.6398 17.1094 91.2725 16.7348 91.6783C16.3602 92.0841 15.7275 92.1094 15.3217 91.7348L2.32172 79.7348L3.67828 78.2652Z" fill="#808080"/>
    <path fill-rule="evenodd" clip-rule="evenodd" d="M85.7071 76.2929C85.3166 75.9024 84.6834 75.9024 84.2929 76.2929L65.2929 95.2929C64.9024 95.6834 64.9024 96.3166 65.2929 96.7071C65.6834 97.0976 66.3166 97.0976 66.7071 96.7071L85.7071 77.7071C86.0976 77.3166 86.0976 76.6834 85.7071 76.2929Z" fill="#808080"/>
    <path fill-rule="evenodd" clip-rule="evenodd" d="M65.3898 13.0437C65.1378 12.5522 64.5351 12.3582 64.0437 12.6102L25.0437 32.6102C24.5523 32.8622 24.3582 33.4649 24.6102 33.9563C24.8622 34.4477 25.4649 34.6418 25.9563 34.3898L64.9563 14.3898C65.4478 14.1378 65.6418 13.5351 65.3898 13.0437Z" fill="#808080"/>
    <path fill-rule="evenodd" clip-rule="evenodd" d="M52.3864 7.03699C52.1306 6.54747 51.5265 6.35794 51.037 6.61366L17.537 24.1137C17.0475 24.3694 16.8579 24.9735 17.1137 25.463C17.3694 25.9525 17.9735 26.1421 18.463 25.8864L51.963 8.38636C52.4525 8.13064 52.6421 7.52651 52.3864 7.03699Z" fill="#808080"/>
    <path fill-rule="evenodd" clip-rule="evenodd" d="M83.3112 22.275C83.7117 21.8946 84.3446 21.9108 84.725 22.3113L92.85 30.8639C93.9093 31.979 94.5 33.4583 94.5 34.9964V48.939C94.5 51.1934 93.2364 53.2574 91.2287 54.2827L70.4548 64.8906C69.9629 65.1418 69.3606 64.9466 69.1094 64.4548C68.8582 63.9629 69.0534 63.3606 69.5452 63.1094L90.3191 52.5015C91.6576 51.818 92.5 50.4419 92.5 48.939V34.9964C92.5 33.971 92.1062 32.9848 91.4 32.2414L83.275 23.6888C82.8946 23.2883 82.9108 22.6554 83.3112 22.275Z" fill="#808080"/>
    <path fill-rule="evenodd" clip-rule="evenodd" d="M80.8821 20.0289C80.6219 19.5417 80.016 19.3577 79.5289 19.6179L35.5289 43.1179C35.0417 43.3781 34.8577 43.9839 35.1179 44.4711C35.3781 44.9583 35.984 45.1423 36.4711 44.8821L80.4711 21.3821C80.9583 21.1219 81.1423 20.516 80.8821 20.0289Z" fill="#808080"/>
    <path fill-rule="evenodd" clip-rule="evenodd" d="M44.2642 5.09255C43.3138 4.14217 41.8473 3.93987 40.6751 4.59744L5.55898 24.2967C4.60413 24.8324 4.01691 25.8456 4.02686 26.9404L4.48235 77.0446C4.48915 77.7924 4.77499 78.5107 5.28385 79.0587L9.1296 83.2003C10.3319 84.495 11 86.1966 11 87.9634V114.056C11 114.857 11.3207 115.625 11.8905 116.189L21.9454 126.133C22.507 126.688 23.265 127 24.0549 127H56.9451C57.7351 127 58.4931 126.688 59.0547 126.133L69.1096 116.189C69.6794 115.625 70 114.857 70 114.056V94.0216C70 92.2062 70.7054 90.4617 71.9671 89.1564L98.157 62.0635C98.6978 61.5041 99 60.7564 99 59.9784V32.219C99 31.3712 98.6414 30.5631 98.0128 29.9943L91.5294 24.1285C90.8901 23.55 89.9257 23.5208 89.2524 24.0593C87.043 25.8269 83.8766 25.727 81.7829 23.8237L80.2262 22.4086C80.0061 22.2085 79.6763 22.1891 79.4342 22.3619L78.2718 20.7345L79.4342 22.3619C77.6249 23.6543 75.1525 23.4786 73.5442 21.9433L65.8047 14.5557C65.4741 14.2401 64.9716 14.1888 64.584 14.431C62.6095 15.6651 60.0446 15.373 58.3982 13.7266L53.0111 8.33943C52.8073 8.13571 52.4925 8.09354 52.2423 8.23648C50.426 9.27436 48.1398 8.96819 46.6606 7.48899L48.0748 6.07478L46.6606 7.48899L44.2642 5.09255ZM47.0926 2.26412L45.6784 3.67834L47.0926 2.26412L49.489 4.66056C49.6928 4.86428 50.0076 4.90645 50.2578 4.76351C52.0741 3.72564 54.3603 4.0318 55.8395 5.511L54.4253 6.92522L55.8395 5.511L61.2266 10.8981C61.5559 11.2275 62.069 11.2859 62.464 11.039C64.4016 9.828 66.9138 10.0846 68.5666 11.6623L76.3061 19.0499C76.5254 19.2593 76.8625 19.2833 77.1093 19.107C78.8842 17.8393 81.303 17.9816 82.9169 19.4488L84.4736 20.8639C85.1127 21.4449 86.0792 21.4754 86.7537 20.9359C88.9591 19.1715 92.1187 19.2674 94.2131 21.1623L100.696 27.0282C102.163 28.3553 103 30.2409 103 32.219V59.9784C103 61.7938 102.295 63.5383 101.033 64.8436L74.8431 91.9365C74.3023 92.4959 74 93.2435 74 94.0216V114.056C74 115.925 73.2519 117.718 71.9224 119.033L61.8675 128.977C60.557 130.273 58.7883 131 56.9451 131H24.0549C22.2118 131 20.4431 130.273 19.1326 128.977L9.07772 119.033C7.7482 117.718 7.00004 115.925 7.00004 114.056V87.9634C7.00004 87.2062 6.71369 86.477 6.19843 85.9221L2.35267 81.7805C1.16534 80.5018 0.498379 78.8258 0.482517 77.081L0.027024 26.9768C0.0038013 24.4223 1.374 22.058 3.60198 20.8082L38.7181 1.10887C41.4532 -0.425464 44.875 0.0465705 47.0926 2.26412Z" fill="#808080"/>
</svg>
