<svg xmlns="http://www.w3.org/2000/svg" version="1.0" width="78.000000pt" height="120.000000pt" viewBox="30 20 66.000000 90.000000" preserveAspectRatio="xMidYMid meet">

<g transform="translate(0.000000,130.000000) scale(0.100000,-0.100000)" fill="#c58fff" stroke="none">
<path d="M625 1162 c-55 -3 -63 -6 -102 -45 l-43 -41 0 -75 0 -75 -57 -59 -58 -58 -3 -95 c-4 -88 -2 -98 21 -133 l26 -38 -54 -107 c-32 -65 -51 -114 -48 -126 6 -23 58 -70 76 -70 7 0 30 10 52 23 35 20 71 72 97 140 2 5 20 -2 40 -15 l37 -23 1 -86 c0 -80 2 -87 28 -112 33 -32 56 -34 100 -7 34 21 34 20 34 140 0 41 2 80 5 86 2 6 23 20 46 30 23 10 59 29 80 41 l37 23 0 184 c0 170 -1 184 -20 201 -17 16 -20 31 -20 117 0 98 0 98 -34 136 -32 35 -39 37 -108 42 -40 3 -100 4 -133 2z m217 -59 l38 -37 0 -84 c0 -76 -2 -83 -17 -77 -10 3 -1 -11 20 -32 l37 -39 0 -171 0 -171 -71 -36 c-39 -20 -75 -36 -80 -36 -22 0 -6 33 26 52 37 21 42 38 7 19 -35 -19 -41 -13 -45 42 -2 28 -4 -36 -5 -144 l-2 -196 -36 -19 -35 -19 -25 28 c-24 28 -24 31 -24 218 0 161 -2 189 -15 189 -9 0 -42 -55 -87 -146 -61 -124 -78 -149 -105 -162 -28 -13 -36 -14 -58 -2 -13 7 -27 21 -30 31 -4 11 31 91 90 209 52 104 95 198 95 208 0 19 -18 42 -34 42 -5 0 -1 -9 9 -20 18 -20 18 -22 -20 -100 -22 -44 -41 -80 -44 -80 -2 0 -13 7 -23 17 -15 13 -18 32 -18 115 l0 99 78 75 c50 49 69 73 55 69 -22 -6 -23 -4 -23 54 0 56 3 64 36 101 l36 40 116 0 116 0 38 -37z m-223 -618 c1 -94 -10 -107 -48 -59 -18 23 -19 29 -7 57 28 65 39 87 46 87 4 0 8 -38 9 -85z"/>
</g>
</svg>