<svg xmlns="http://www.w3.org/2000/svg" version="1.0" width="63.000000pt" height="115.000000pt" viewBox="10 4 80.000000 157.000000" preserveAspectRatio="xMidYMid meet">

<g transform="translate(0.000000,169.000000) scale(0.100000,-0.100000)" fill="#808080" stroke="none">
<path d="M518 1565 c-92 -47 -172 -93 -178 -104 -5 -11 -10 -43 -10 -72 l0 -52 -117 -119 -118 -119 0 -138 c1 -136 1 -139 29 -175 36 -48 68 -63 100 -48 13 6 27 8 30 5 3 -4 6 -136 6 -294 l0 -288 38 -41 c22 -22 46 -40 56 -40 19 0 104 39 112 51 3 5 23 9 45 9 46 0 114 31 129 59 5 11 10 31 10 45 0 22 5 26 28 26 15 0 45 10 67 23 38 21 40 25 43 77 3 59 15 80 43 80 10 0 30 10 44 23 l26 22 -1 355 0 354 -25 36 c-23 34 -25 44 -25 164 l0 127 -57 60 c-41 43 -63 59 -82 58 -14 0 -101 -38 -193 -84z m252 10 l45 -46 3 -116 4 -116 -26 7 c-14 3 -26 5 -26 3 0 -2 23 -26 50 -54 l50 -51 0 -350 c0 -346 0 -351 -21 -362 -29 -16 -64 -5 -77 25 -7 15 -12 77 -13 148 0 71 -4 114 -8 102 -9 -22 -7 -128 5 -304 7 -112 7 -114 -17 -132 -33 -25 -59 -24 -92 6 l-27 26 0 169 c0 110 -4 171 -11 176 -10 6 -9 -103 4 -426 l2 -64 -40 -23 c-49 -28 -72 -26 -99 10 -19 26 -22 46 -27 225 l-6 197 1 -234 1 -235 -30 -18 c-43 -26 -70 -22 -99 13 l-26 31 0 429 c0 295 -3 428 -10 424 -7 -4 -10 -50 -9 -116 1 -120 -4 -134 -53 -144 -24 -6 -35 -2 -59 21 l-29 28 0 136 0 135 115 115 115 115 0 56 c0 41 5 60 18 71 23 21 313 167 332 167 9 1 36 -19 60 -44z"/>
</g>
</svg>